<svg width="8" height="6" viewBox="0 0 8 6" fill="none" xmlns="http://www.w3.org/2000/svg">
<path d="M7.35522 0.604993C7.30874 0.558129 7.25344 0.520932 7.19251 0.495548C7.13158 0.470163 7.06622 0.457094 7.00022 0.457094C6.93421 0.457094 6.86886 0.470163 6.80793 0.495548C6.747 0.520932 6.6917 0.558129 6.64522 0.604993L2.92022 4.33499L1.35522 2.76499C1.30696 2.71837 1.24999 2.68172 1.18756 2.65711C1.12513 2.63251 1.05847 2.62045 0.99138 2.62161C0.92429 2.62277 0.858085 2.63713 0.796546 2.66388C0.735007 2.69063 0.679338 2.72923 0.632719 2.77749C0.5861 2.82575 0.549443 2.88272 0.524841 2.94515C0.500239 3.00758 0.488174 3.07424 0.489334 3.14133C0.490495 3.20842 0.504859 3.27463 0.531606 3.33617C0.558352 3.39771 0.596958 3.45337 0.645219 3.49999L2.56522 5.41999C2.6117 5.46686 2.667 5.50405 2.72793 5.52944C2.78886 5.55482 2.85421 5.56789 2.92022 5.56789C2.98623 5.56789 3.05158 5.55482 3.11251 5.52944C3.17344 5.50405 3.22874 5.46686 3.27522 5.41999L7.35522 1.33999C7.40597 1.29317 7.44648 1.23635 7.47418 1.1731C7.50188 1.10985 7.51619 1.04154 7.51619 0.972493C7.51619 0.903443 7.50188 0.83514 7.47418 0.77189C7.44648 0.70864 7.40597 0.651814 7.35522 0.604993Z" fill="#26A4E3"/>
</svg>
