<svg width="24" height="24" viewBox="0 0 24 24" fill="none" xmlns="http://www.w3.org/2000/svg">
<rect width="24" height="24" rx="12" fill="#D0EEFE"/>
<path d="M17.0323 8.40749C16.9626 8.33719 16.8797 8.28139 16.7883 8.24332C16.6969 8.20524 16.5988 8.18564 16.4998 8.18564C16.4008 8.18564 16.3028 8.20524 16.2114 8.24332C16.12 8.28139 16.0371 8.33719 15.9673 8.40749L10.3798 14.0025L8.03234 11.6475C7.95995 11.5776 7.87449 11.5226 7.78085 11.4857C7.68721 11.4488 7.58722 11.4307 7.48658 11.4324C7.38595 11.4342 7.28664 11.4557 7.19433 11.4958C7.10202 11.5359 7.01852 11.5938 6.94859 11.6662C6.87866 11.7386 6.82368 11.8241 6.78677 11.9177C6.74987 12.0114 6.73177 12.1114 6.73351 12.212C6.73525 12.3126 6.7568 12.4119 6.79692 12.5042C6.83704 12.5966 6.89495 12.6801 6.96734 12.75L9.84734 15.63C9.91706 15.7003 10 15.7561 10.0914 15.7942C10.1828 15.8322 10.2808 15.8518 10.3798 15.8518C10.4788 15.8518 10.5769 15.8322 10.6683 15.7942C10.7597 15.7561 10.8426 15.7003 10.9123 15.63L17.0323 9.50999C17.1085 9.43976 17.1692 9.35452 17.2108 9.25964C17.2523 9.16477 17.2738 9.06231 17.2738 8.95874C17.2738 8.85516 17.2523 8.75271 17.2108 8.65783C17.1692 8.56296 17.1085 8.47772 17.0323 8.40749Z" fill="#1198DC"/>
</svg>
