<svg width="8" height="6" viewBox="0 0 8 6" fill="none" xmlns="http://www.w3.org/2000/svg">
<path d="M7.355 0.604991C7.30852 0.558127 7.25322 0.52093 7.19229 0.495546C7.13136 0.470161 7.06601 0.457092 7.00001 0.457092C6.934 0.457092 6.86865 0.470161 6.80772 0.495546C6.74679 0.52093 6.69149 0.558127 6.64501 0.604991L2.92001 4.33499L1.35501 2.76499C1.30674 2.71837 1.24977 2.68172 1.18735 2.65711C1.12492 2.63251 1.05826 2.62045 0.991167 2.62161C0.924076 2.62277 0.857871 2.63713 0.796332 2.66388C0.734793 2.69062 0.679125 2.72923 0.632505 2.77749C0.585886 2.82575 0.549229 2.88272 0.524627 2.94515C0.500025 3.00758 0.48796 3.07424 0.489121 3.14133C0.490281 3.20842 0.504645 3.27463 0.531392 3.33616C0.558139 3.3977 0.596745 3.45337 0.645005 3.49999L2.56501 5.41999C2.61149 5.46686 2.66679 5.50405 2.72772 5.52944C2.78865 5.55482 2.854 5.56789 2.92001 5.56789C2.98601 5.56789 3.05136 5.55482 3.11229 5.52944C3.17322 5.50405 3.22852 5.46686 3.27501 5.41999L7.355 1.33999C7.40576 1.29317 7.44626 1.23634 7.47397 1.17309C7.50167 1.10984 7.51597 1.04154 7.51597 0.972492C7.51597 0.903441 7.50167 0.835138 7.47397 0.771888C7.44626 0.708638 7.40576 0.651813 7.355 0.604991Z" fill="#26A4E3"/>
</svg>
