<svg width="12" height="12" viewBox="0 0 12 12" fill="none" xmlns="http://www.w3.org/2000/svg">
<path d="M10.855 10.145L8.99998 8.30501C9.72003 7.40721 10.0687 6.26765 9.97439 5.12066C9.88004 3.97366 9.34982 2.9064 8.49274 2.13833C7.63567 1.37026 6.51689 0.959761 5.36644 0.991241C4.216 1.02272 3.12134 1.49379 2.30755 2.30758C1.49376 3.12137 1.0227 4.21602 0.991218 5.36647C0.959738 6.51691 1.37024 7.63569 2.1383 8.49277C2.90637 9.34984 3.97363 9.88006 5.12063 9.97441C6.26763 10.0688 7.40719 9.72006 8.30498 9.00001L10.145 10.84C10.1915 10.8869 10.2468 10.9241 10.3077 10.9495C10.3686 10.9748 10.434 10.9879 10.5 10.9879C10.566 10.9879 10.6313 10.9748 10.6923 10.9495C10.7532 10.9241 10.8085 10.8869 10.855 10.84C10.9451 10.7468 10.9955 10.6222 10.9955 10.4925C10.9955 10.3628 10.9451 10.2382 10.855 10.145ZM5.49998 9.00001C4.80775 9.00001 4.13106 8.79473 3.55549 8.41015C2.97991 8.02556 2.53131 7.47894 2.2664 6.8394C2.0015 6.19986 1.93219 5.49612 2.06723 4.81719C2.20228 4.13826 2.53563 3.51462 3.02511 3.02513C3.51459 2.53565 4.13823 2.20231 4.81717 2.06726C5.4961 1.93221 6.19983 2.00152 6.83938 2.26643C7.47892 2.53133 8.02554 2.97994 8.41013 3.55551C8.79471 4.13108 8.99998 4.80777 8.99998 5.50001C8.99998 6.42826 8.63123 7.3185 7.97486 7.97488C7.31848 8.63126 6.42824 9.00001 5.49998 9.00001Z" fill="#A3A3A3"/>
</svg>
